<?xml version="1.0" encoding="UTF-8" standalone="no"?>
<svg
   xmlns:dc="http://purl.org/dc/elements/1.1/"
   xmlns:cc="http://creativecommons.org/ns#"
   xmlns:rdf="http://www.w3.org/1999/02/22-rdf-syntax-ns#"
   xmlns:svg="http://www.w3.org/2000/svg"
   xmlns="http://www.w3.org/2000/svg"
   viewBox="0 0 366.47867 247.14932"
   height="247.14932"
   width="366.47867"
   xml:space="preserve"
   id="svg2"
   version="1.1"><metadata
     id="metadata8"><rdf:RDF><cc:Work
         rdf:about=""><dc:format>image/svg+xml</dc:format><dc:type
           rdf:resource="http://purl.org/dc/dcmitype/StillImage" /></cc:Work></rdf:RDF></metadata><defs
     id="defs6" /><g
     transform="matrix(1.3333333,0,0,-1.3333333,94.919998,19.329336)"
     id="g10"><g
       id="g12"><g
         id="g14"><path
           id="path16"
           style="fill:none;stroke:#000000;stroke-width:0.3985;stroke-linecap:butt;stroke-linejoin:miter;stroke-miterlimit:10;stroke-dasharray:none;stroke-opacity:1"
           d="M 70.867,10.18828 V -66.8819 c 0,-2.20094 -1.78416,-3.9851 -3.9851,-3.9851 H -66.8819 c -2.20094,0 -3.9851,1.78416 -3.9851,3.9851 v 77.07018 c 0,2.20094 1.78416,3.98511 3.9851,3.98511 H 66.8819 c 2.20094,0 3.9851,-1.78417 3.9851,-3.98511 z" /><g
           id="g18"><g
             transform="translate(-67.346,-67.239)"
             id="g20"><g
               id="g22"><g
                 transform="translate(-3.844,-103.626)"
                 id="g24"><text
                   id="text28"
                   style="font-variant:normal;font-weight:normal;font-size:9.96259975px;font-family:CMR10;-inkscape-font-specification:CMR10;writing-mode:lr-tb;fill:#000000;fill-opacity:1;fill-rule:nonzero;stroke:none"
                   transform="matrix(1,0,0,-1,3.844,103.626)"><tspan
                     id="tspan26"
                     y="0"
                     x="0 7.4719501 16.324717 20.253965 25.235266 28.002876 32.982185 37.419525">NSsolver</tspan></text>
<g
                   transform="translate(3.844,103.626)"
                   id="g30" /></g></g><g
               transform="translate(67.346,67.239)"
               id="g32" /></g></g><g
           id="g34"><g
             id="g36"><path
               id="path38"
               style="fill:#b4d4ff;fill-opacity:1;fill-rule:nonzero;stroke:#b4d4ff;stroke-width:0.3985;stroke-linecap:butt;stroke-linejoin:miter;stroke-miterlimit:10;stroke-dasharray:none;stroke-opacity:1"
               d="m 27.78137,6.42007 h -55.56274 c -2.20093,0 -3.98511,-1.78416 -3.98511,-3.9851 v -4.86994 c 0,-2.20094 1.78418,-3.9851 3.98511,-3.9851 h 55.56274 c 2.20093,0 3.98511,1.78416 3.98511,3.9851 v 4.86994 c 0,2.20094 -1.78418,3.9851 -3.98511,3.9851 z" /></g><g
             transform="translate(-28.446,-1.744)"
             id="g40"><g
               id="g42"><g
                 transform="translate(-42.744,-169.121)"
                 id="g44"><text
                   id="text48"
                   style="font-variant:normal;font-weight:normal;font-size:6.97380018px;font-family:CMR7;-inkscape-font-specification:CMR7;writing-mode:lr-tb;fill:#000000;fill-opacity:1;fill-rule:nonzero;stroke:none"
                   transform="matrix(1,0,0,-1,42.744,169.121)"><tspan
                     id="tspan46"
                     y="0"
                     x="0 4.4004679 8.3720465 12.772514 17.172983 19.428308 22.970303 25.654518 30.054985 33.168091 37.565071 40.035191 43.577183 47.119179 50.239254 52.494583">double-project.h</tspan></text>
<g
                   transform="translate(42.744,169.121)"
                   id="g50" /></g></g><g
               transform="translate(28.446,1.744)"
               id="g52" /></g></g><g
           id="g54"><g
             id="g56"><path
               id="path58"
               style="fill:#b4d4ff;fill-opacity:1;fill-rule:nonzero;stroke:#b4d4ff;stroke-width:0.3985;stroke-linecap:butt;stroke-linejoin:miter;stroke-miterlimit:10;stroke-dasharray:none;stroke-opacity:1"
               d="m 17.15436,-15.51804 h -34.30872 c -2.20094,0 -3.98511,-1.78416 -3.98511,-3.9851 v -3.5139 c 0,-2.20095 1.78417,-3.98511 3.98511,-3.98511 h 34.30872 c 2.20094,0 3.98511,1.78416 3.98511,3.98511 v 3.5139 c 0,2.20094 -1.78417,3.9851 -3.98511,3.9851 z" /></g><g
             transform="translate(-17.819,-23.681)"
             id="g60"><g
               id="g62"><g
                 transform="translate(-53.371,-147.184)"
                 id="g64"><text
                   id="text68"
                   style="font-variant:normal;font-weight:normal;font-size:6.97380018px;font-family:CMR7;-inkscape-font-specification:CMR7;writing-mode:lr-tb;fill:#000000;fill-opacity:1;fill-rule:nonzero;stroke:none"
                   transform="matrix(1,0,0,-1,53.371,147.184)"><tspan
                     id="tspan66"
                     y="0"
                     x="0 3.5419929 7.0839858 11.268266 14.381371 17.923363 21.036469 24.578461 28.978928 31.234255">centered.h</tspan></text>
<g
                   transform="translate(53.371,147.184)"
                   id="g70" /></g></g><g
               transform="translate(17.819,23.681)"
               id="g72" /></g></g><g
           id="g74"><g
             id="g76"><path
               id="path78"
               style="fill:#86b6f6;fill-opacity:1;fill-rule:nonzero;stroke:#86b6f6;stroke-width:0.3985;stroke-linecap:butt;stroke-linejoin:miter;stroke-miterlimit:10;stroke-dasharray:none;stroke-opacity:1"
               d="M 8.72748,-36.10011 H -8.72748 c -2.20094,0 -3.98511,-1.78417 -3.98511,-3.98511 v -4.86995 c 0,-2.20094 1.78417,-3.98511 3.98511,-3.98511 H 8.72748 c 2.20094,0 3.98511,1.78417 3.98511,3.98511 v 4.86995 c 0,2.20094 -1.78417,3.98511 -3.98511,3.98511 z" /></g><g
             transform="translate(-9.392,-44.263)"
             id="g80"><g
               id="g82"><g
                 transform="translate(-61.798,-126.602)"
                 id="g84"><text
                   id="text88"
                   style="font-variant:normal;font-weight:normal;font-size:6.97380018px;font-family:CMR7;-inkscape-font-specification:CMR7;writing-mode:lr-tb;fill:#000000;fill-opacity:1;fill-rule:nonzero;stroke:none"
                   transform="matrix(1,0,0,-1,61.798,126.602)"><tspan
                     id="tspan86"
                     y="0"
                     x="0 4.6166558 8.1586485 12.130228 14.385554">bcg.h</tspan></text>
<g
                   transform="translate(61.798,126.602)"
                   id="g90" /></g></g><g
               transform="translate(9.392,44.263)"
               id="g92" /></g></g><g
           id="g94"><g
             id="g96"><path
               id="path98"
               style="fill:#86b6f6;fill-opacity:1;fill-rule:nonzero;stroke:#86b6f6;stroke-width:0.3985;stroke-linecap:butt;stroke-linejoin:miter;stroke-miterlimit:10;stroke-dasharray:none;stroke-opacity:1"
               d="m 57.94632,-36.10011 h -30.8522 c -2.20095,0 -3.98511,-1.78417 -3.98511,-3.98511 v -4.86995 c 0,-2.20094 1.78416,-3.98511 3.98511,-3.98511 h 30.8522 c 2.20094,0 3.98511,1.78417 3.98511,3.98511 v 4.86995 c 0,2.20094 -1.78417,3.98511 -3.98511,3.98511 z" /></g><g
             transform="translate(26.429,-44.263)"
             id="g100"><g
               id="g102"><g
                 transform="translate(-97.619,-126.602)"
                 id="g104"><text
                   id="text108"
                   style="font-variant:normal;font-weight:normal;font-size:6.97380018px;font-family:CMR7;-inkscape-font-specification:CMR7;writing-mode:lr-tb;fill:#000000;fill-opacity:1;fill-rule:nonzero;stroke:none"
                   transform="matrix(1,0,0,-1,97.619,126.602)"><tspan
                     id="tspan106"
                     y="0"
                     x="0 4.6166558 8.5882349 10.843561 13.999904 17.156246 21.127825 25.528292 27.783619">poisson.h</tspan></text>
<g
                   transform="translate(97.619,126.602)"
                   id="g110" /></g></g><g
               transform="translate(-26.429,44.263)"
               id="g112" /></g></g><g
           id="g114"><g
             id="g116"><path
               id="path118"
               style="fill:#86b6f6;fill-opacity:1;fill-rule:nonzero;stroke:#86b6f6;stroke-width:0.3985;stroke-linecap:butt;stroke-linejoin:miter;stroke-miterlimit:10;stroke-dasharray:none;stroke-opacity:1"
               d="M -25.37483,-36.10011 H -59.6656 c -2.20095,0 -3.98511,-1.78417 -3.98511,-3.98511 v -4.86995 c 0,-2.20094 1.78416,-3.98511 3.98511,-3.98511 h 34.29077 c 2.20094,0 3.98511,1.78417 3.98511,3.98511 v 4.86995 c 0,2.20094 -1.78417,3.98511 -3.98511,3.98511 z" /></g><g
             transform="translate(-60.329,-44.263)"
             id="g120"><g
               id="g122"><g
                 transform="translate(-10.861,-126.602)"
                 id="g124"><text
                   id="text128"
                   style="font-variant:normal;font-weight:normal;font-size:6.97380018px;font-family:CMR7;-inkscape-font-specification:CMR7;writing-mode:lr-tb;fill:#000000;fill-opacity:1;fill-rule:nonzero;stroke:none"
                   transform="matrix(1,0,0,-1,10.861,126.602)"><tspan
                     id="tspan126"
                     y="0"
                     x="0 4.1856747 6.4410019 9.5973434 13.139337 17.110916 20.267258 22.522585 25.4195 28.963587 31.218914">viscosity.h</tspan></text>
<g
                   transform="translate(10.861,126.602)"
                   id="g130" /></g></g><g
               transform="translate(60.329,44.263)"
               id="g132" /></g></g><g
           id="g134"><g
             id="g136"><path
               id="path138"
               style="fill:#eef5ff;fill-opacity:1;fill-rule:nonzero;stroke:#eef5ff;stroke-width:0.3985;stroke-linecap:butt;stroke-linejoin:miter;stroke-miterlimit:10;stroke-dasharray:none;stroke-opacity:1"
               d="m 14.4395,-58.03824 h -28.879 c -2.20094,0 -3.9851,-1.78416 -3.9851,-3.98511 v -3.51391 c 0,-2.20094 1.78416,-3.98511 3.9851,-3.98511 h 28.879 c 2.20094,0 3.9851,1.78417 3.9851,3.98511 v 3.51391 c 0,2.20095 -1.78416,3.98511 -3.9851,3.98511 z" /></g><g
             transform="translate(-15.104,-66.201)"
             id="g140"><g
               id="g142"><g
                 transform="translate(-56.086,-104.664)"
                 id="g144"><text
                   id="text148"
                   style="font-variant:normal;font-weight:normal;font-size:6.97380018px;font-family:CMR7;-inkscape-font-specification:CMR7;writing-mode:lr-tb;fill:#000000;fill-opacity:1;fill-rule:nonzero;stroke:none"
                   transform="matrix(1,0,0,-1,56.086,104.664)"><tspan
                     id="tspan146"
                     y="0"
                     x="0 3.1131043 6.2262087 10.197787 13.73978 17.281775 20.394878 23.55122 25.806547">tracers.h</tspan></text>
<g
                   transform="translate(56.086,104.664)"
                   id="g150" /></g></g><g
               transform="translate(15.104,66.201)"
               id="g152" /></g></g><path
           id="path154"
           style="fill:none;stroke:#000000;stroke-width:0.3985;stroke-linecap:butt;stroke-linejoin:miter;stroke-miterlimit:10;stroke-dasharray:none;stroke-opacity:1"
           d="M 0,-15.31879 V -7.0776" /><g
           transform="rotate(90,3.5388,-3.5388)"
           id="g156"><g
             id="g158"><path
               id="path160"
               style="fill:none;stroke:#000000;stroke-width:0.31878999;stroke-linecap:round;stroke-linejoin:round;stroke-miterlimit:10;stroke-dasharray:none;stroke-opacity:1"
               d="M -1.19551,1.59401 C -1.09587,0.99626 0,0.09961 0.29886,0 0,-0.09961 -1.09587,-0.99626 -1.19551,-1.59401" /></g></g><path
           id="path162"
           style="fill:none;stroke:#000000;stroke-width:0.3985;stroke-linecap:butt;stroke-linejoin:miter;stroke-miterlimit:10;stroke-dasharray:none;stroke-opacity:1"
           d="m 0,-27.20142 v -8.24116" /><g
           transform="rotate(-90,-17.72129,-17.72129)"
           id="g164"><g
             id="g166"><path
               id="path168"
               style="fill:none;stroke:#000000;stroke-width:0.31878999;stroke-linecap:round;stroke-linejoin:round;stroke-miterlimit:10;stroke-dasharray:none;stroke-opacity:1"
               d="M -1.19551,1.59401 C -1.09587,0.99626 0,0.09961 0.29886,0 0,-0.09961 -1.09587,-0.99626 -1.19551,-1.59401" /></g></g><path
           id="path170"
           style="fill:none;stroke:#000000;stroke-width:0.3985;stroke-linecap:butt;stroke-linejoin:miter;stroke-miterlimit:10;stroke-dasharray:none;stroke-opacity:1"
           d="M 0,-49.13954 V -57.3807" /><g
           transform="rotate(-90,-28.69035,-28.69035)"
           id="g172"><g
             id="g174"><path
               id="path176"
               style="fill:none;stroke:#000000;stroke-width:0.31878999;stroke-linecap:round;stroke-linejoin:round;stroke-miterlimit:10;stroke-dasharray:none;stroke-opacity:1"
               d="M -1.19551,1.59401 C -1.09587,0.99626 0,0.09961 0.29886,0 0,-0.09961 -1.09587,-0.99626 -1.19551,-1.59401" /></g></g><path
           id="path178"
           style="fill:none;stroke:#000000;stroke-width:0.3985;stroke-linecap:butt;stroke-linejoin:miter;stroke-miterlimit:10;stroke-dasharray:none;stroke-opacity:1"
           d="M -21.33871,-21.2601 H -42.52022 V -35.44258" /><g
           transform="rotate(-90,-38.9814,3.53882)"
           id="g180"><g
             id="g182"><path
               id="path184"
               style="fill:none;stroke:#000000;stroke-width:0.31878999;stroke-linecap:round;stroke-linejoin:round;stroke-miterlimit:10;stroke-dasharray:none;stroke-opacity:1"
               d="M -1.19551,1.59401 C -1.09587,0.99626 0,0.09961 0.29886,0 0,-0.09961 -1.09587,-0.99626 -1.19551,-1.59401" /></g></g><path
           id="path186"
           style="fill:none;stroke:#000000;stroke-width:0.3985;stroke-linecap:butt;stroke-linejoin:miter;stroke-miterlimit:10;stroke-dasharray:none;stroke-opacity:1"
           d="M 21.33871,-21.2601 H 42.52022 V -35.44258" /><g
           transform="rotate(-90,3.53882,-38.9814)"
           id="g188"><g
             id="g190"><path
               id="path192"
               style="fill:none;stroke:#000000;stroke-width:0.31878999;stroke-linecap:round;stroke-linejoin:round;stroke-miterlimit:10;stroke-dasharray:none;stroke-opacity:1"
               d="M -1.19551,1.59401 C -1.09587,0.99626 0,0.09961 0.29886,0 0,-0.09961 -1.09587,-0.99626 -1.19551,-1.59401" /></g></g><path
           id="path194"
           style="fill:none;stroke:#000000;stroke-width:0.3985;stroke-linecap:butt;stroke-linejoin:miter;stroke-miterlimit:10;stroke-dasharray:none;stroke-opacity:1"
           d="m -70.867,-89.02553 v -77.07022 c 0,-2.20094 1.78416,-3.98511 3.9851,-3.98511 h 176.28403 c 2.20094,0 3.98511,1.78417 3.98511,3.98511 v 77.07022 c 0,2.20095 -1.78417,3.98511 -3.98511,3.98511 H -66.8819 c -2.20094,0 -3.9851,-1.78416 -3.9851,-3.98511 z" /><g
           id="g196"><g
             transform="translate(-67.346,-165.483)"
             id="g198"><g
               id="g200"><g
                 transform="translate(-3.844,-5.382)"
                 id="g202"><text
                   id="text206"
                   style="font-variant:normal;font-weight:normal;font-size:9.96259975px;font-family:CMR10;-inkscape-font-specification:CMR10;writing-mode:lr-tb;fill:#000000;fill-opacity:1;fill-rule:nonzero;stroke:none"
                   transform="matrix(1,0,0,-1,3.844,5.382)"><tspan
                     id="tspan204"
                     y="0"
                     x="0 9.1327152 14.667936 17.435547 21.310001 24.077612 29.612833 35.148052 40.129353 44.058601">Multiphase</tspan></text>
<g
                   transform="translate(3.844,5.382)"
                   id="g208" /></g></g><g
               transform="translate(67.346,165.483)"
               id="g210" /></g></g><g
           id="g212"><g
             id="g214"><path
               id="path216"
               style="fill:#86b6f6;fill-opacity:1;fill-rule:nonzero;stroke:#86b6f6;stroke-width:0.3985;stroke-linecap:butt;stroke-linejoin:miter;stroke-miterlimit:10;stroke-dasharray:none;stroke-opacity:1"
               d="m -24.1862,-92.79373 h -36.668 c -2.20095,0 -3.98511,-1.78417 -3.98511,-3.98511 v -4.86996 c 0,-2.20093 1.78416,-3.98511 3.98511,-3.98511 h 36.668 c 2.20094,0 3.9851,1.78418 3.9851,3.98511 v 4.86996 c 0,2.20094 -1.78416,3.98511 -3.9851,3.98511 z" /></g><g
             transform="translate(-61.518,-100.956)"
             id="g218"><g
               id="g220"><g
                 transform="translate(-9.672,-69.909)"
                 id="g222"><text
                   id="text226"
                   style="font-variant:normal;font-weight:normal;font-size:6.97380018px;font-family:CMR7;-inkscape-font-specification:CMR7;writing-mode:lr-tb;fill:#000000;fill-opacity:1;fill-rule:nonzero;stroke:none"
                   transform="matrix(1,0,0,-1,9.672,69.909)"><tspan
                     id="tspan224"
                     y="0"
                     x="0 3.9715791 7.5135722 11.485151 18.030062 21.572056 24.68516 27.798264 31.34235 33.597675">geometry.h</tspan></text>
<g
                   transform="translate(9.672,69.909)"
                   id="g228" /></g></g><g
               transform="translate(61.518,100.956)"
               id="g230" /></g></g><g
           id="g232"><g
             id="g234"><path
               id="path236"
               style="fill:#86b6f6;fill-opacity:1;fill-rule:nonzero;stroke:#86b6f6;stroke-width:0.3985;stroke-linecap:butt;stroke-linejoin:miter;stroke-miterlimit:10;stroke-dasharray:none;stroke-opacity:1"
               d="m -26.4382,-107.64516 h -32.16399 c -2.20094,0 -3.98511,-1.78416 -3.98511,-3.9851 v -3.51391 c 0,-2.20094 1.78417,-3.9851 3.98511,-3.9851 h 32.16399 c 2.20093,0 3.9851,1.78416 3.9851,3.9851 v 3.51391 c 0,2.20094 -1.78417,3.9851 -3.9851,3.9851 z" /></g><g
             transform="translate(-59.266,-115.807)"
             id="g238"><g
               id="g240"><g
                 transform="translate(-11.924,-55.058)"
                 id="g242"><text
                   id="text246"
                   style="font-variant:normal;font-weight:normal;font-size:6.97380018px;font-family:CMR7;-inkscape-font-specification:CMR7;writing-mode:lr-tb;fill:#000000;fill-opacity:1;fill-rule:nonzero;stroke:none"
                   transform="matrix(1,0,0,-1,11.924,55.058)"><tspan
                     id="tspan244"
                     y="0"
                     x="0 2.47012 5.5832243 9.5548038 13.096796 16.2099 18.465227 22.436808 26.837275 29.092602">fraction.h</tspan></text>
<g
                   transform="translate(11.924,55.058)"
                   id="g248" /></g></g><g
               transform="translate(59.266,115.807)"
               id="g250" /></g></g><g
           id="g252"><g
             id="g254"><path
               id="path256"
               style="fill:#86b6f6;fill-opacity:1;fill-rule:nonzero;stroke:#86b6f6;stroke-width:0.3985;stroke-linecap:butt;stroke-linejoin:miter;stroke-miterlimit:10;stroke-dasharray:none;stroke-opacity:1"
               d="M 22.043,-93.47176 H 6.30385 c -2.20095,0 -3.98511,-1.78416 -3.98511,-3.9851 v -3.51392 c 0,-2.20094 1.78416,-3.98511 3.98511,-3.98511 H 22.043 c 2.20094,0 3.9851,1.78417 3.9851,3.98511 v 3.51392 c 0,2.20094 -1.78416,3.9851 -3.9851,3.9851 z" /></g><g
             transform="translate(5.639,-101.634)"
             id="g258"><g
               id="g260"><g
                 transform="translate(-76.829,-69.231)"
                 id="g262"><text
                   id="text266"
                   style="font-variant:normal;font-weight:normal;font-size:6.97380018px;font-family:CMR7;-inkscape-font-specification:CMR7;writing-mode:lr-tb;fill:#000000;fill-opacity:1;fill-rule:nonzero;stroke:none"
                   transform="matrix(1,0,0,-1,76.829,69.231)"><tspan
                     id="tspan264"
                     y="0"
                     x="0 3.969487 7.9410663 10.411186 12.666512">vof.h</tspan></text>
<g
                   transform="translate(76.829,69.231)"
                   id="g268" /></g></g><g
               transform="translate(-5.639,101.634)"
               id="g270" /></g></g><g
           id="g272"><g
             id="g274"><path
               id="path276"
               style="fill:#b4d4ff;fill-opacity:1;fill-rule:nonzero;stroke:#b4d4ff;stroke-width:0.3985;stroke-linecap:butt;stroke-linejoin:miter;stroke-miterlimit:10;stroke-dasharray:none;stroke-opacity:1"
               d="M 104.30508,-92.79373 H 37.42903 c -2.20094,0 -3.98511,-1.78417 -3.98511,-3.98511 v -4.86996 c 0,-2.20093 1.78417,-3.98511 3.98511,-3.98511 h 66.87605 c 2.20095,0 3.98511,1.78418 3.98511,3.98511 v 4.86996 c 0,2.20094 -1.78416,3.98511 -3.98511,3.98511 z" /></g><g
             transform="translate(36.764,-100.956)"
             id="g278"><g
               id="g280"><g
                 transform="translate(-107.954,-69.909)"
                 id="g282"><text
                   id="text286"
                   style="font-variant:normal;font-weight:normal;font-size:6.97380018px;font-family:CMR7;-inkscape-font-specification:CMR7;writing-mode:lr-tb;fill:#000000;fill-opacity:1;fill-rule:nonzero;stroke:none"
                   transform="matrix(1,0,0,-1,107.954,69.909)"><tspan
                     id="tspan284"
                     y="0"
                     x="0 2.8969166 8.374836 12.339441 15.023658 19.424126 23.824593 27.796171 30.952515 34.494507 37.178722 41.150303 44.692295 49.092762 52.634754 55.74786 58.003185 61.545181 63.80748">two-phase-generic.h</tspan></text>
<g
                   transform="translate(107.954,69.909)"
                   id="g288" /></g></g><g
               transform="translate(-36.764,100.956)"
               id="g290" /></g></g><path
           id="path292"
           style="fill:none;stroke:#000000;stroke-width:0.3985;stroke-linecap:butt;stroke-linejoin:miter;stroke-miterlimit:10;stroke-dasharray:none;stroke-opacity:1"
           d="M -20.00185,-99.21382 H 1.66121" /><g
           transform="translate(1.66121,-99.21382)"
           id="g294"><g
             id="g296"><path
               id="path298"
               style="fill:none;stroke:#000000;stroke-width:0.31878999;stroke-linecap:round;stroke-linejoin:round;stroke-miterlimit:10;stroke-dasharray:none;stroke-opacity:1"
               d="M -1.19551,1.59401 C -1.09587,0.99626 0,0.09961 0.29886,0 0,-0.09961 -1.09587,-0.99626 -1.19551,-1.59401" /></g></g><path
           id="path300"
           style="fill:none;stroke:#000000;stroke-width:0.3985;stroke-linecap:butt;stroke-linejoin:miter;stroke-miterlimit:10;stroke-dasharray:none;stroke-opacity:1"
           d="m 26.22736,-99.21382 h 6.55903" /><g
           transform="translate(32.78639,-99.21382)"
           id="g302"><g
             id="g304"><path
               id="path306"
               style="fill:none;stroke:#000000;stroke-width:0.31878999;stroke-linecap:round;stroke-linejoin:round;stroke-miterlimit:10;stroke-dasharray:none;stroke-opacity:1"
               d="M -1.19551,1.59401 C -1.09587,0.99626 0,0.09961 0.29886,0 0,-0.09961 -1.09587,-0.99626 -1.19551,-1.59401" /></g></g><path
           id="path308"
           style="fill:none;stroke:#000000;stroke-width:0.3985;stroke-linecap:butt;stroke-linejoin:miter;stroke-miterlimit:10;stroke-dasharray:none;stroke-opacity:1"
           d="m -22.25385,-113.38722 h 8.08046 v 14.1734" /><g
           id="g310"><g
             id="g312"><path
               id="path314"
               style="fill:#eef5ff;fill-opacity:1;fill-rule:nonzero;stroke:#eef5ff;stroke-width:0.3985;stroke-linecap:butt;stroke-linejoin:miter;stroke-miterlimit:10;stroke-dasharray:none;stroke-opacity:1"
               d="M -24.72241,-128.22725 H -60.318 c -2.20094,0 -3.9851,-1.78416 -3.9851,-3.98511 v -4.86994 c 0,-2.20095 1.78416,-3.98511 3.9851,-3.98511 h 35.59559 c 2.20094,0 3.98511,1.78416 3.98511,3.98511 v 4.86994 c 0,2.20095 -1.78417,3.98511 -3.98511,3.98511 z" /></g><g
             transform="translate(-60.982,-136.389)"
             id="g316"><g
               id="g318"><g
                 transform="translate(-10.208,-34.476)"
                 id="g320"><text
                   id="text324"
                   style="font-variant:normal;font-weight:normal;font-size:6.97380018px;font-family:CMR7;-inkscape-font-specification:CMR7;writing-mode:lr-tb;fill:#000000;fill-opacity:1;fill-rule:nonzero;stroke:none"
                   transform="matrix(1,0,0,-1,10.208,34.476)"><tspan
                     id="tspan322"
                     y="0"
                     x="0 4.4004679 8.3720465 11.485151 15.45673 20.073385 24.044966 26.300291 30.271872 32.527199">parabola.h</tspan></text>
<g
                   transform="translate(10.208,34.476)"
                   id="g326" /></g></g><g
               transform="translate(60.982,136.389)"
               id="g328" /></g></g><g
           id="g330"><g
             id="g332"><path
               id="path334"
               style="fill:#86b6f6;fill-opacity:1;fill-rule:nonzero;stroke:#86b6f6;stroke-width:0.3985;stroke-linecap:butt;stroke-linejoin:miter;stroke-miterlimit:10;stroke-dasharray:none;stroke-opacity:1"
               d="M -27.54451,-142.40065 H -57.4959 c -2.20094,0 -3.9851,-1.78416 -3.9851,-3.98511 v -4.86994 c 0,-2.20095 1.78416,-3.98511 3.9851,-3.98511 h 29.95139 c 2.20094,0 3.98511,1.78416 3.98511,3.98511 v 4.86994 c 0,2.20095 -1.78417,3.98511 -3.98511,3.98511 z" /></g><g
             transform="translate(-58.16,-150.562)"
             id="g336"><g
               id="g338"><g
                 transform="translate(-13.03,-20.303)"
                 id="g340"><text
                   id="text344"
                   style="font-variant:normal;font-weight:normal;font-size:6.97380018px;font-family:CMR7;-inkscape-font-specification:CMR7;writing-mode:lr-tb;fill:#000000;fill-opacity:1;fill-rule:nonzero;stroke:none"
                   transform="matrix(1,0,0,-1,13.03,20.303)"><tspan
                     id="tspan342"
                     y="0"
                     x="0 4.4004679 7.942461 10.197787 14.169367 18.353647 21.466751 24.623093 26.87842">heights.h</tspan></text>
<g
                   transform="translate(13.03,20.303)"
                   id="g346" /></g></g><g
               transform="translate(58.16,150.562)"
               id="g348" /></g></g><g
           id="g350"><g
             id="g352"><path
               id="path354"
               style="fill:#b4d4ff;fill-opacity:1;fill-rule:nonzero;stroke:#b4d4ff;stroke-width:0.3985;stroke-linecap:butt;stroke-linejoin:miter;stroke-miterlimit:10;stroke-dasharray:none;stroke-opacity:1"
               d="M 33.31345,-128.90527 H -4.96658 c -2.20095,0 -3.98511,-1.78417 -3.98511,-3.98511 v -3.5139 c 0,-2.20094 1.78416,-3.98511 3.98511,-3.98511 h 38.28003 c 2.20094,0 3.9851,1.78417 3.9851,3.98511 v 3.5139 c 0,2.20094 -1.78416,3.98511 -3.9851,3.98511 z" /></g><g
             transform="translate(-5.631,-137.067)"
             id="g356"><g
               id="g358"><g
                 transform="translate(-65.559,-33.798)"
                 id="g360"><text
                   id="text364"
                   style="font-variant:normal;font-weight:normal;font-size:6.97380018px;font-family:CMR7;-inkscape-font-specification:CMR7;writing-mode:lr-tb;fill:#000000;fill-opacity:1;fill-rule:nonzero;stroke:none"
                   transform="matrix(1,0,0,-1,65.559,33.798)"><tspan
                     id="tspan362"
                     y="0"
                     x="0 3.5419929 7.942461 11.055565 14.815838 18.780443 21.893547 26.294016 29.40712 32.956085 35.211414">curvature.h</tspan></text>
<g
                   transform="translate(65.559,33.798)"
                   id="g366" /></g></g><g
               transform="translate(5.631,137.067)"
               id="g368" /></g></g><g
           id="g370"><g
             id="g372"><path
               id="path374"
               style="fill:#b4d4ff;fill-opacity:1;fill-rule:nonzero;stroke:#b4d4ff;stroke-width:0.3985;stroke-linecap:butt;stroke-linejoin:miter;stroke-miterlimit:10;stroke-dasharray:none;stroke-opacity:1"
               d="M 26.28412,-143.07867 H 2.06271 c -2.20092,0 -3.98509,-1.78417 -3.98509,-3.98511 v -3.5139 c 0,-2.20095 1.78417,-3.98511 3.98509,-3.98511 h 24.22141 c 2.20094,0 3.98511,1.78416 3.98511,3.98511 v 3.5139 c 0,2.20094 -1.78417,3.98511 -3.98511,3.98511 z" /></g><g
             transform="translate(1.398,-151.24)"
             id="g376"><g
               id="g378"><g
                 transform="translate(-72.588,-19.625)"
                 id="g380"><text
                   id="text384"
                   style="font-variant:normal;font-weight:normal;font-size:6.97380018px;font-family:CMR7;-inkscape-font-specification:CMR7;writing-mode:lr-tb;fill:#000000;fill-opacity:1;fill-rule:nonzero;stroke:none"
                   transform="matrix(1,0,0,-1,72.588,19.625)"><tspan
                     id="tspan382"
                     y="0"
                     x="0 2.255327 4.7254467 8.6970263 11.81013 15.352123 18.894115 21.149443">iforce.h</tspan></text>
<g
                   transform="translate(72.588,19.625)"
                   id="g386" /></g></g><g
               transform="translate(-1.398,151.24)"
               id="g388" /></g></g><g
           id="g390"><g
             id="g392"><path
               id="path394"
               style="fill:#b4d4ff;fill-opacity:1;fill-rule:nonzero;stroke:#b4d4ff;stroke-width:0.3985;stroke-linecap:butt;stroke-linejoin:miter;stroke-miterlimit:10;stroke-dasharray:none;stroke-opacity:1"
               d="M 85.94998,-128.90527 H 55.78412 c -2.20094,0 -3.98511,-1.78417 -3.98511,-3.98511 v -3.5139 c 0,-2.20094 1.78417,-3.98511 3.98511,-3.98511 h 30.16586 c 2.20094,0 3.98511,1.78417 3.98511,3.98511 v 3.5139 c 0,2.20094 -1.78417,3.98511 -3.98511,3.98511 z" /></g><g
             transform="translate(55.119,-137.067)"
             id="g396"><g
               id="g398"><g
                 transform="translate(-126.309,-33.798)"
                 id="g400"><text
                   id="text404"
                   style="font-variant:normal;font-weight:normal;font-size:6.97380018px;font-family:CMR7;-inkscape-font-specification:CMR7;writing-mode:lr-tb;fill:#000000;fill-opacity:1;fill-rule:nonzero;stroke:none"
                   transform="matrix(1,0,0,-1,126.309,33.798)"><tspan
                     id="tspan402"
                     y="0"
                     x="0 3.1131043 6.6550975 11.055565 14.211907 16.467234 20.438812 24.839281 27.094608">tension.h</tspan></text>
<g
                   transform="translate(126.309,33.798)"
                   id="g406" /></g></g><g
               transform="translate(-55.119,137.067)"
               id="g408" /></g></g><path
           id="path410"
           style="fill:none;stroke:#000000;stroke-width:0.3985;stroke-linecap:butt;stroke-linejoin:miter;stroke-miterlimit:10;stroke-dasharray:none;stroke-opacity:1"
           d="M -20.53804,-134.64734 H -9.60922" /><g
           transform="translate(-9.60922,-134.64734)"
           id="g412"><g
             id="g414"><path
               id="path416"
               style="fill:none;stroke:#000000;stroke-width:0.31878999;stroke-linecap:round;stroke-linejoin:round;stroke-miterlimit:10;stroke-dasharray:none;stroke-opacity:1"
               d="M -1.19551,1.59401 C -1.09587,0.99626 0,0.09961 0.29886,0 0,-0.09961 -1.09587,-0.99626 -1.19551,-1.59401" /></g></g><path
           id="path418"
           style="fill:none;stroke:#000000;stroke-width:0.3985;stroke-linecap:butt;stroke-linejoin:miter;stroke-miterlimit:10;stroke-dasharray:none;stroke-opacity:1"
           d="M 37.4978,-134.64734 H 51.14148" /><g
           transform="translate(51.14148,-134.64734)"
           id="g420"><g
             id="g422"><path
               id="path424"
               style="fill:none;stroke:#000000;stroke-width:0.31878999;stroke-linecap:round;stroke-linejoin:round;stroke-miterlimit:10;stroke-dasharray:none;stroke-opacity:1"
               d="M -1.19551,1.59401 C -1.09587,0.99626 0,0.09961 0.29886,0 0,-0.09961 -1.09587,-0.99626 -1.19551,-1.59401" /></g></g><path
           id="path426"
           style="fill:none;stroke:#000000;stroke-width:0.3985;stroke-linecap:butt;stroke-linejoin:miter;stroke-miterlimit:10;stroke-dasharray:none;stroke-opacity:1"
           d="m -23.36014,-148.82074 h 9.18675 v 14.1734" /><path
           id="path428"
           style="fill:none;stroke:#000000;stroke-width:0.3985;stroke-linecap:butt;stroke-linejoin:miter;stroke-miterlimit:10;stroke-dasharray:none;stroke-opacity:1"
           d="m 30.46848,-148.82074 h 12.05175 v 14.1734" /><path
           id="path430"
           style="fill:none;stroke:#000000;stroke-width:0.3985;stroke-linecap:butt;stroke-linejoin:miter;stroke-miterlimit:10;stroke-dasharray:none;stroke-opacity:1"
           d="M 85.04042,10.18828 V -66.8819 c 0,-2.20094 1.78416,-3.9851 3.98511,-3.9851 h 91.2436 c 2.20095,0 3.98511,1.78416 3.98511,3.9851 v 77.07018 c 0,2.20094 -1.78416,3.98511 -3.98511,3.98511 h -91.2436 c -2.20095,0 -3.98511,-1.78417 -3.98511,-3.98511 z" /><g
           id="g432"><g
             transform="translate(88.559,-67.239)"
             id="g434"><g
               id="g436"><g
                 transform="translate(-159.749,-103.626)"
                 id="g438"><text
                   id="text442"
                   style="font-variant:normal;font-weight:normal;font-size:9.96259975px;font-family:CMR10;-inkscape-font-specification:CMR10;writing-mode:lr-tb;fill:#000000;fill-opacity:1;fill-rule:nonzero;stroke:none"
                   transform="matrix(1,0,0,-1,159.749,103.626)"><tspan
                     id="tspan440"
                     y="0"
                     x="0 7.1949897 12.73021 19.922211 27.117201 31.54458 34.312191">CutCell</tspan></text>
<g
                   transform="translate(159.749,103.626)"
                   id="g444" /></g></g><g
               transform="translate(-88.559,67.239)"
               id="g446" /></g></g><g
           id="g448"><g
             id="g450"><path
               id="path452"
               style="fill:#b4d4ff;fill-opacity:1;fill-rule:nonzero;stroke:#b4d4ff;stroke-width:0.3985;stroke-linecap:butt;stroke-linejoin:miter;stroke-miterlimit:10;stroke-dasharray:none;stroke-opacity:1"
               d="m 156.52365,5.74205 h -43.75262 c -2.20095,0 -3.98511,-1.78416 -3.98511,-3.98511 v -3.51388 c 0,-2.20095 1.78416,-3.98511 3.98511,-3.98511 h 43.75262 c 2.20095,0 3.98511,1.78416 3.98511,3.98511 v 3.51388 c 0,2.20095 -1.78416,3.98511 -3.98511,3.98511 z" /></g><g
             transform="translate(112.105,-2.421)"
             id="g454"><g
               id="g456"><g
                 transform="translate(-183.295,-168.444)"
                 id="g458"><text
                   id="text462"
                   style="font-variant:normal;font-weight:normal;font-size:6.97380018px;font-family:CMR7;-inkscape-font-specification:CMR7;writing-mode:lr-tb;fill:#000000;fill-opacity:1;fill-rule:nonzero;stroke:none"
                   transform="matrix(1,0,0,-1,183.295,168.444)"><tspan
                     id="tspan460"
                     y="0"
                     x="0 3.5419929 9.8707161 14.487372 18.029366 22.429832 25.114048 28.227154 31.340258 34.882252 38.424244 40.679569">embed-tree.h</tspan></text>
<g
                   transform="translate(183.295,168.444)"
                   id="g464" /></g></g><g
               transform="translate(-112.105,2.421)"
               id="g466" /></g></g><g
           id="g468"><g
             id="g470"><path
               id="path472"
               style="fill:#b4d4ff;fill-opacity:1;fill-rule:nonzero;stroke:#b4d4ff;stroke-width:0.3985;stroke-linecap:butt;stroke-linejoin:miter;stroke-miterlimit:10;stroke-dasharray:none;stroke-opacity:1"
               d="m 148.52573,-15.51804 h -27.75678 c -2.20094,0 -3.98511,-1.78416 -3.98511,-3.9851 v -3.5139 c 0,-2.20095 1.78417,-3.98511 3.98511,-3.98511 h 27.75678 c 2.20094,0 3.9851,1.78416 3.9851,3.98511 v 3.5139 c 0,2.20094 -1.78416,3.9851 -3.9851,3.9851 z" /></g><g
             transform="translate(120.103,-23.681)"
             id="g474"><g
               id="g476"><g
                 transform="translate(-191.293,-147.184)"
                 id="g478"><text
                   id="text482"
                   style="font-variant:normal;font-weight:normal;font-size:6.97380018px;font-family:CMR7;-inkscape-font-specification:CMR7;writing-mode:lr-tb;fill:#000000;fill-opacity:1;fill-rule:nonzero;stroke:none"
                   transform="matrix(1,0,0,-1,191.293,147.184)"><tspan
                     id="tspan480"
                     y="0"
                     x="0 3.5419929 9.8707161 14.487372 18.029366 22.429832 24.68516">embed.h</tspan></text>
<g
                   transform="translate(191.293,147.184)"
                   id="g484" /></g></g><g
               transform="translate(-120.103,23.681)"
               id="g486" /></g></g><g
           id="g488"><g
             id="g490"><path
               id="path492"
               style="fill:#eef5ff;fill-opacity:1;fill-rule:nonzero;stroke:#eef5ff;stroke-width:0.3985;stroke-linecap:butt;stroke-linejoin:miter;stroke-miterlimit:10;stroke-dasharray:none;stroke-opacity:1"
               d="m 164.67172,-36.10011 h -60.04878 c -2.20094,0 -3.98511,-1.78417 -3.98511,-3.98511 v -4.86995 c 0,-2.20094 1.78417,-3.98511 3.98511,-3.98511 h 60.04878 c 2.20095,0 3.98511,1.78417 3.98511,3.98511 v 4.86995 c 0,2.20094 -1.78416,3.98511 -3.98511,3.98511 z" /></g><g
             transform="translate(103.957,-44.263)"
             id="g494"><g
               id="g496"><g
                 transform="translate(-175.147,-126.602)"
                 id="g498"><text
                   id="text502"
                   style="font-variant:normal;font-weight:normal;font-size:6.97380018px;font-family:CMR7;-inkscape-font-specification:CMR7;writing-mode:lr-tb;fill:#000000;fill-opacity:1;fill-rule:nonzero;stroke:none"
                   transform="matrix(1,0,0,-1,175.147,126.602)"><tspan
                     id="tspan500"
                     y="0"
                     x="0 4.1856747 6.4410019 9.5973434 13.139337 17.110916 20.267258 22.522585 25.4195 29.605175 32.289391 35.831383 42.16708 46.776764 50.318756 54.719223 56.974552">viscosity-embed.h</tspan></text>
<g
                   transform="translate(175.147,126.602)"
                   id="g504" /></g></g><g
               transform="translate(-103.957,44.263)"
               id="g506" /></g></g><path
           id="path508"
           style="fill:none;stroke:#000000;stroke-width:0.3985;stroke-linecap:butt;stroke-linejoin:miter;stroke-miterlimit:10;stroke-dasharray:none;stroke-opacity:1"
           d="m 134.64734,-5.9413 v -8.9192" /><g
           transform="rotate(-90,59.89342,-74.75392)"
           id="g510"><g
             id="g512"><path
               id="path514"
               style="fill:none;stroke:#000000;stroke-width:0.31878999;stroke-linecap:round;stroke-linejoin:round;stroke-miterlimit:10;stroke-dasharray:none;stroke-opacity:1"
               d="M -1.19551,1.59401 C -1.09587,0.99626 0,0.09961 0.29886,0 0,-0.09961 -1.09587,-0.99626 -1.19551,-1.59401" /></g></g><path
           id="path516"
           style="fill:none;stroke:#000000;stroke-width:0.3985;stroke-linecap:butt;stroke-linejoin:miter;stroke-miterlimit:10;stroke-dasharray:none;stroke-opacity:1"
           d="m 134.64734,-27.20142 v -8.24116" /><g
           transform="rotate(-90,49.60238,-85.04496)"
           id="g518"><g
             id="g520"><path
               id="path522"
               style="fill:none;stroke:#000000;stroke-width:0.31878999;stroke-linecap:round;stroke-linejoin:round;stroke-miterlimit:10;stroke-dasharray:none;stroke-opacity:1"
               d="M -1.19551,1.59401 C -1.09587,0.99626 0,0.09961 0.29886,0 0,-0.09961 -1.09587,-0.99626 -1.19551,-1.59401" /></g></g><g
           id="g524"><path
             id="path526"
             style="fill:#86b6f6;fill-opacity:1;fill-rule:nonzero;stroke:#86b6f6;stroke-width:0.3985;stroke-linecap:butt;stroke-linejoin:miter;stroke-miterlimit:10;stroke-dasharray:none;stroke-opacity:1"
             d="m 120.47392,-95.22871 v -0.8835 c 0,2.20092 1.78417,3.98511 3.98511,3.98511 h -0.88351 c 2.20094,0 3.9851,-1.78419 3.9851,-3.98511 v 0.8835 c 0,-2.20095 -1.78416,-3.98511 -3.9851,-3.98511 h 0.88351 c -2.20094,0 -3.98511,1.78416 -3.98511,3.98511 z" /><g
             id="g528"><g
               transform="translate(131.079,-98.091)"
               id="g530"><g
                 id="g532"><g
                   transform="translate(-202.269,-72.774)"
                   id="g534"><text
                     id="text538"
                     style="font-variant:normal;font-weight:normal;font-size:6.97380018px;font-family:CMR7;-inkscape-font-specification:CMR7;writing-mode:lr-tb;fill:#000000;fill-opacity:1;fill-rule:nonzero;stroke:none"
                     transform="matrix(1,0,0,-1,202.269,72.774)"><tspan
                       id="tspan536"
                       y="0"
                       x="0 5.140388 7.3957148 11.796183 14.05151 17.207851 21.60832 25.150312">Finished</tspan></text>
<g
                     transform="translate(202.269,72.774)"
                     id="g540" /></g></g><g
                 transform="translate(-131.079,98.091)"
                 id="g542" /></g></g></g><g
           id="g544"><path
             id="path546"
             style="fill:#b4d4ff;fill-opacity:1;fill-rule:nonzero;stroke:#b4d4ff;stroke-width:0.3985;stroke-linecap:butt;stroke-linejoin:miter;stroke-miterlimit:10;stroke-dasharray:none;stroke-opacity:1"
             d="m 120.47392,-123.57552 v -0.88351 c 0,2.20094 1.78417,3.98511 3.98511,3.98511 h -0.88351 c 2.20094,0 3.9851,-1.78417 3.9851,-3.98511 v 0.88351 c 0,-2.20094 -1.78416,-3.9851 -3.9851,-3.9851 h 0.88351 c -2.20094,0 -3.98511,1.78416 -3.98511,3.9851 z" /><g
             id="g548"><g
               transform="translate(131.079,-126.437)"
               id="g550"><g
                 id="g552"><g
                   transform="translate(-202.269,-44.428)"
                   id="g554"><text
                     id="text558"
                     style="font-variant:normal;font-weight:normal;font-size:6.97380018px;font-family:CMR7;-inkscape-font-specification:CMR7;writing-mode:lr-tb;fill:#000000;fill-opacity:1;fill-rule:nonzero;stroke:none"
                     transform="matrix(1,0,0,-1,202.269,44.428)"><tspan
                       id="tspan556"
                       y="0"
                       x="0 5.8810058 10.281473 14.681941 18.223934 24.021952 29.709085 33.680664 38.081131 41.237473 44.350578 47.463684 51.864151 55.406143 58.519249 60.774574 64.746155">UnderConstruction</tspan></text>
<g
                     transform="translate(202.269,44.428)"
                     id="g560" /></g></g><g
                 transform="translate(-131.079,126.437)"
                 id="g562" /></g></g></g><g
           id="g564"><path
             id="path566"
             style="fill:#b4d4ff;fill-opacity:1;fill-rule:nonzero;stroke:#b4d4ff;stroke-width:0.3985;stroke-linecap:butt;stroke-linejoin:miter;stroke-miterlimit:10;stroke-dasharray:none;stroke-opacity:1"
             d="m 120.47392,-151.92233 v -0.88352 c 0,2.20095 1.78417,3.98511 3.98511,3.98511 h -0.88351 c 2.20094,0 3.9851,-1.78416 3.9851,-3.98511 v 0.88352 c 0,-2.20095 -1.78416,-3.98511 -3.9851,-3.98511 h 0.88351 c -2.20094,0 -3.98511,1.78416 -3.98511,3.98511 z" /><g
             id="g568"><g
               transform="translate(131.079,-154.106)"
               id="g570"><g
                 id="g572"><g
                   transform="translate(-202.269,-16.759)"
                   id="g574"><text
                     id="text578"
                     style="font-variant:normal;font-weight:normal;font-size:6.97380018px;font-family:CMR7;-inkscape-font-specification:CMR7;writing-mode:lr-tb;fill:#000000;fill-opacity:1;fill-rule:nonzero;stroke:none"
                     transform="matrix(1,0,0,-1,202.269,16.759)"><tspan
                       id="tspan576"
                       y="0"
                       x="0 5.3551812 8.4682856 12.010279 16.410746 20.382326 23.49543 27.037422">Prepared</tspan></text>
<g
                     transform="translate(202.269,16.759)"
                     id="g580" /></g></g><g
                 transform="translate(-131.079,154.106)"
                 id="g582" /></g></g></g></g></g></g></svg>