<?xml version="1.0" encoding="UTF-8" standalone="no"?>
<svg
   xmlns:dc="http://purl.org/dc/elements/1.1/"
   xmlns:cc="http://creativecommons.org/ns#"
   xmlns:rdf="http://www.w3.org/1999/02/22-rdf-syntax-ns#"
   xmlns:svg="http://www.w3.org/2000/svg"
   xmlns="http://www.w3.org/2000/svg"
   viewBox="0 0 95.351997 76.453331"
   height="76.453331"
   width="95.351997"
   xml:space="preserve"
   id="svg2"
   version="1.1"><metadata
     id="metadata8"><rdf:RDF><cc:Work
         rdf:about=""><dc:format>image/svg+xml</dc:format><dc:type
           rdf:resource="http://purl.org/dc/dcmitype/StillImage" /></cc:Work></rdf:RDF></metadata><defs
     id="defs6" /><g
     transform="matrix(1.3333333,0,0,-1.3333333,0.43199999,47.674667)"
     id="g10"><g
       id="g12"><g
         id="g14"><g
           id="g16"><path
             id="path18"
             style="fill:#eef5ff;fill-opacity:1;fill-rule:nonzero;stroke:#eef5ff;stroke-width:0.3985;stroke-linecap:butt;stroke-linejoin:miter;stroke-miterlimit:10;stroke-dasharray:none;stroke-opacity:1"
             d="m 0,25.24521 v 6.20317 c 0,2.20094 1.78416,3.98511 3.9851,3.98511 h 62.8968 c 2.20094,0 3.9851,-1.78417 3.9851,-3.98511 v -6.20317 c 0,-2.20094 -1.78416,-3.98511 -3.9851,-3.98511 H 3.9851 C 1.78416,21.2601 0,23.04427 0,25.24521 Z" /></g><g
           id="g20"><path
             id="path22"
             style="fill:#b4d4ff;fill-opacity:1;fill-rule:nonzero;stroke:#b4d4ff;stroke-width:0.3985;stroke-linecap:butt;stroke-linejoin:miter;stroke-miterlimit:10;stroke-dasharray:none;stroke-opacity:1"
             d="m 0,3.9851 v 6.20318 c 0,2.20094 1.78416,3.98511 3.9851,3.98511 h 62.8968 c 2.20094,0 3.9851,-1.78417 3.9851,-3.98511 V 3.9851 C 70.867,1.78416 69.08284,0 66.8819,0 H 3.9851 C 1.78416,0 0,1.78416 0,3.9851 Z" /></g><g
           id="g24"><path
             id="path26"
             style="fill:#86b6f6;fill-opacity:1;fill-rule:nonzero;stroke:#86b6f6;stroke-width:0.3985;stroke-linecap:butt;stroke-linejoin:miter;stroke-miterlimit:10;stroke-dasharray:none;stroke-opacity:1"
             d="m 0,-11.0718 v -6.2032 c 0,-2.20094 1.78416,-3.9851 3.9851,-3.9851 h 62.8968 c 2.20094,0 3.9851,1.78416 3.9851,3.9851 v 6.2032 c 0,2.20095 -1.78416,3.98511 -3.9851,3.98511 H 3.9851 C 1.78416,-7.08669 0,-8.87085 0,-11.0718 Z" /></g><g
           id="g28"><g
             transform="matrix(0.5,0,0,0.5,22.358,27.101)"
             id="g30"><g
               id="g32"><g
                 transform="translate(-22.682,-48.685)"
                 id="g34"><text
                   id="text38"
                   style="font-variant:normal;font-weight:normal;font-size:9.96259975px;font-family:CMMI10;-inkscape-font-specification:CMMI10;writing-mode:lr-tb;fill:#000000;fill-opacity:1;fill-rule:nonzero;stroke:none"
                   transform="matrix(1,0,0,-1,22.682,48.685)"><tspan
                     id="tspan36"
                     y="0"
                     x="0 2.7676103">.c</tspan></text>
<text
                   id="text42"
                   style="font-variant:normal;font-weight:normal;font-size:9.96259975px;font-family:CMR10;-inkscape-font-specification:CMR10;writing-mode:lr-tb;fill:#000000;fill-opacity:1;fill-rule:nonzero;stroke:none"
                   transform="matrix(1,0,0,-1,33.082,48.685)"><tspan
                     id="tspan40"
                     y="0"
                     x="0 5.5352206 9.4644699 13.89185 21.111746 23.879356 28.591665 33.570972 37.998352">userlayer</tspan></text>
<g
                   transform="translate(22.682,48.685)"
                   id="g44" /></g></g><g
               transform="translate(-22.358,-27.101)"
               id="g46" /></g></g><g
           id="g48"><g
             transform="matrix(0.5,0,0,0.5,20.202,5.841)"
             id="g50"><g
               id="g52"><g
                 transform="translate(-20.526,-27.425)"
                 id="g54"><text
                   id="text58"
                   style="font-variant:normal;font-weight:normal;font-size:9.96259975px;font-family:CMMI10;-inkscape-font-specification:CMMI10;writing-mode:lr-tb;fill:#000000;fill-opacity:1;fill-rule:nonzero;stroke:none"
                   transform="matrix(1,0,0,-1,20.526,27.425)"><tspan
                     id="tspan56"
                     y="0"
                     x="0 2.7676103">.h</tspan></text>
<text
                   id="text62"
                   style="font-variant:normal;font-weight:normal;font-size:9.96259975px;font-family:CMR10;-inkscape-font-specification:CMR10;writing-mode:lr-tb;fill:#000000;fill-opacity:1;fill-rule:nonzero;stroke:none"
                   transform="matrix(1,0,0,-1,32.355,27.425)"><tspan
                     id="tspan60"
                     y="0"
                     x="0 3.9292495 8.9105492 11.67816 16.657467 21.084846 28.314705 31.082315 35.784664 40.763969 45.191349">solverlayer</tspan></text>
<g
                   transform="translate(20.526,27.425)"
                   id="g64" /></g></g><g
               transform="translate(-20.202,-5.841)"
               id="g66" /></g></g><g
           id="g68"><g
             transform="matrix(0.5,0,0,0.5,7.191,-15.419)"
             id="g70"><g
               id="g72"><g
                 transform="translate(-7.515,-6.165)"
                 id="g74"><text
                   id="text78"
                   style="font-variant:normal;font-weight:normal;font-size:9.96259975px;font-family:CMR10;-inkscape-font-specification:CMR10;writing-mode:lr-tb;fill:#000000;fill-opacity:1;fill-rule:nonzero;stroke:none"
                   transform="matrix(1,0,0,-1,7.515,6.165)"><tspan
                     id="tspan76"
                     y="0"
                     x="0 8.3018341 12.729214 16.658463 25.51123 30.492529 36.027752 44.89048 51.946987 56.928288 60.85754 63.625149 66.392761 69.16037 73.089615 81.665428 92.177963 94.945572 99.657883 104.63718 109.06457">meshandBasiliskClayer</tspan></text>
<g
                   transform="translate(7.515,6.165)"
                   id="g80" /></g></g><g
               transform="translate(-7.191,15.419)"
               id="g82" /></g></g><g
           id="g84"><path
             id="path86"
             style="fill:none;stroke:#000000;stroke-width:0.19925;stroke-linecap:butt;stroke-linejoin:miter;stroke-miterlimit:10;stroke-dasharray:none;stroke-opacity:1"
             d="M 35.43349,21.2601 V 14.50714" /><g
             transform="rotate(-90,24.970315,-10.463175)"
             id="g88"><g
               id="g90"><path
                 id="path92"
                 style="fill:none;stroke:#000000;stroke-width:0.15938;stroke-linecap:round;stroke-linejoin:round;stroke-miterlimit:10;stroke-dasharray:none;stroke-opacity:1"
                 d="M -1.01619,1.35492 C -0.93149,0.84682 0,0.08467 0.25403,0 0,-0.08467 -0.93149,-0.84682 -1.01619,-1.35492" /></g></g></g><g
           id="g94"><path
             id="path96"
             style="fill:none;stroke:#000000;stroke-width:0.19925;stroke-linecap:butt;stroke-linejoin:miter;stroke-miterlimit:10;stroke-dasharray:none;stroke-opacity:1"
             d="M 35.43349,0 V -6.75294" /><g
             transform="rotate(-90,14.340275,-21.093215)"
             id="g98"><g
               id="g100"><path
                 id="path102"
                 style="fill:none;stroke:#000000;stroke-width:0.15938;stroke-linecap:round;stroke-linejoin:round;stroke-miterlimit:10;stroke-dasharray:none;stroke-opacity:1"
                 d="M -1.01619,1.35492 C -0.93149,0.84682 0,0.08467 0.25403,0 0,-0.08467 -0.93149,-0.84682 -1.01619,-1.35492" /></g></g></g></g></g></g></svg>